<svg width="100%" height="100%" id="svg" viewBox="0 0 1440 600" xmlns="http://www.w3.org/2000/svg" class="transition duration-300 ease-in-out delay-150"><path d="M 0,600 C 0,600 0,150 0,150 C 59.20714531088973,134.85812435589145 118.41429062177946,119.7162487117829 183,116 C 247.58570937822054,112.2837512882171 317.5499828237718,119.99312950875986 388,141 C 458.4500171762282,162.00687049124014 529.385778083133,196.31123325317762 604,184 C 678.614221916867,171.68876674682238 756.9069048436962,112.7619374785297 827,115 C 897.0930951563038,117.2380625214703 958.9866025420815,180.64101683270354 1034,203 C 1109.0133974579185,225.35898316729646 1197.1466849879766,206.67399519065614 1267,191 C 1336.8533150120234,175.32600480934386 1388.4266575060117,162.66300240467194 1440,150 C 1440,150 1440,600 1440,600 Z" stroke="none" stroke-width="0" fill="#f78da7" fill-opacity="0.4" class="transition-all duration-300 ease-in-out delay-150 path-0" transform="rotate(-180 720 300)"></path><path d="M 0,600 C 0,600 0,300 0,300 C 51.308828581243574,281.4537959464102 102.61765716248715,262.90759189282034 168,261 C 233.38234283751285,259.09240810717966 312.838199931295,273.8234283751288 383,274 C 453.161800068705,274.1765716248712 514.0295431123327,259.7986946066644 584,253 C 653.9704568876673,246.2013053933356 733.0436276193747,246.98179319821367 803,273 C 872.9563723806253,299.01820680178633 933.7959464101682,350.274132600481 996,344 C 1058.2040535898318,337.725867399519 1121.772586739952,273.9216763998626 1196,257 C 1270.227413260048,240.07832360013742 1355.113706630024,270.0391618000687 1440,300 C 1440,300 1440,600 1440,600 Z" stroke="none" stroke-width="0" fill="#f78da7" fill-opacity="0.53" class="transition-all duration-300 ease-in-out delay-150 path-1" transform="rotate(-180 720 300)"></path><path d="M 0,600 C 0,600 0,450 0,450 C 79.39608381999315,432.6478873239437 158.7921676399863,415.29577464788736 225,403 C 291.2078323600137,390.70422535211264 344.227413260048,383.4647887323943 399,406 C 453.772586739952,428.5352112676057 510.2981793198213,480.84507042253523 588,482 C 665.7018206801787,483.15492957746477 764.5798694606666,433.1549295774648 830,425 C 895.4201305393334,416.8450704225352 927.3823428375129,450.53521126760563 997,470 C 1066.6176571624871,489.46478873239437 1173.890759189282,494.70422535211264 1254,489 C 1334.109240810718,483.29577464788736 1387.054620405359,466.6478873239437 1440,450 C 1440,450 1440,600 1440,600 Z" stroke="none" stroke-width="0" fill="#f78da7" fill-opacity="1" class="transition-all duration-300 ease-in-out delay-150 path-2" transform="rotate(-180 720 300)"></path></svg>